<svg xmlns="http://www.w3.org/2000/svg" width="173" height="90"><g fill="none" fill-rule="evenodd"><path fill="#FF5100" d="M58.584 16.512l-8.864 2.415L58.4 0 2.119 20.715l3.077 24.813L0 50.537l15.494 38.811 32.932-12.134 11.448-26.875-4.914-4.738zM107.093 12.93a.34.34 0 0 0-.337-.337h-4.19c-.121 0-.274.153-.274.336v11.085c0 .152.153.274.275.274h4.19c.183 0 .336-.122.336-.274V12.929zm2.904-4.795c1.438 0 2.416.977 2.416 2.413v15.786c0 1.435-.978 2.412-2.416 2.412h-10.61c-1.437 0-2.416-.977-2.416-2.412V10.548c0-1.436.98-2.413 2.416-2.413h10.61zm17.26 11.023V12.96c0-.366-.307-.611-.735-.611h-3.302c-.367 0-.642.275-.642.61v6.2h4.678zm5.32 9.588h-5.32v-5.13h-4.68v5.13h-5.32V10.547c0-1.435.979-2.411 2.415-2.411h10.488c1.438 0 2.417.976 2.417 2.411v18.2zm14.842-15.878c0-.153-.153-.306-.275-.306h-4.403v5.497h4.403c.122 0 .275-.152.275-.275v-4.916zm2.966-4.733a2.32 2.32 0 0 1 2.324 2.32v9.436c0 1.252-1.07 2.321-2.324 2.321h-.153l2.538 6.534h-5.198l-2.569-6.534h-2.262v6.534h-5.32V8.136h12.964zm17.32 5.924c0-.886-.612-1.497-1.499-1.497h-3.18v11.726h3.18c.887 0 1.499-.61 1.499-1.496v-8.733zm1.1-5.924c2.263 0 4.19 1.863 4.19 4.183v12.214c0 2.351-1.927 4.214-4.19 4.214h-11.1V8.136h11.1zM106.97 45.351v-6.199c0-.366-.306-.61-.733-.61h-3.303c-.367 0-.641.274-.641.61v6.199h4.677zm5.32 9.588h-5.32v-5.13h-4.677v5.13H96.97v-18.2c0-1.434.98-2.41 2.416-2.41h10.488c1.437 0 2.416.976 2.416 2.41v18.2zM122.027 43.274v11.665h-4.893V34.328h5.382l4.159 9.619 3.822-9.619h5.627v20.611h-5.015V43.061l-3.486 8.183h-2.079zM140.967 34.328h13.485v4.428h-8.195v3.603h7.094v4.397h-7.094v3.725h8.195v4.458h-13.485zM96.971 60.604h13.485v4.427h-8.195v3.604h7.094v4.397h-7.094v3.725h8.195v4.458H96.971zM114.933 60.604h13.485v4.427h-8.195v3.604h7.094v4.397h-7.094v3.725h8.195v4.458h-13.485zM143.933 81.215l-4.036-7.878-1.682 2.718v5.16h-5.32V60.604h5.32v8.58l5.352-8.58h5.932l-5.963 8.947 6.207 11.664z"/><path fill="#3F3A60" d="M87.275 20.623c0-.153-.092-.337-.306-.337h-4.77v4.55h4.77c.214 0 .306-.152.306-.305v-3.908zm0-8.061c0-.153-.092-.337-.306-.337h-4.77V16.5h4.77c.214 0 .306-.152.306-.335v-3.603zM76.909 28.745V8.134h12.72c1.682 0 2.752 1.068 2.752 2.595v4.58c0 1.405-.917 2.749-2.813 3.207 1.896.458 2.966 1.74 2.966 3.114v4.489c0 1.618-1.07 2.626-2.752 2.626H76.909zm9.394 39.816h5.778v10.29c0 1.343-1.039 2.352-2.354 2.352H79.294c-1.315 0-2.385-1.009-2.385-2.352V62.912c0-1.252 1.07-2.32 2.385-2.32H92.08v4.427h-9.576c-.153 0-.306.152-.306.336v11.053c0 .184.153.306.306.306h4.378c.214 0 .337-.122.337-.306v-3.48h-2.783l1.866-4.367zm0-26.264h5.778v10.29c0 1.344-1.039 2.352-2.354 2.352H79.294c-1.315 0-2.385-1.008-2.385-2.352V36.65c0-1.253 1.07-2.321 2.385-2.321H92.08v4.427h-9.576c-.153 0-.306.153-.306.336v11.054c0 .183.153.305.306.305h4.378c.214 0 .337-.122.337-.305v-3.48h-2.783l1.866-4.368z"/></g></svg>